<?xml version="1.0" encoding="UTF-8" standalone="no"?>
<!-- Created with Inkscape (http://www.inkscape.org/) -->

<svg
   xmlns:dc="http://purl.org/dc/elements/1.1/"
   xmlns:cc="http://creativecommons.org/ns#"
   xmlns:rdf="http://www.w3.org/1999/02/22-rdf-syntax-ns#"
   xmlns:svg="http://www.w3.org/2000/svg"
   xmlns="http://www.w3.org/2000/svg"
   xmlns:sodipodi="http://sodipodi.sourceforge.net/DTD/sodipodi-0.dtd"
   xmlns:inkscape="http://www.inkscape.org/namespaces/inkscape"
   id="svg3229"
   height="22"
   width="22"
   version="1.0"
   inkscape:version="0.48.4 r9939"
   sodipodi:docname="proxify-error.svg">
  <defs
     id="defs3157" />
  <sodipodi:namedview
     pagecolor="#ffffff"
     bordercolor="#666666"
     borderopacity="1"
     objecttolerance="10"
     gridtolerance="10"
     guidetolerance="10"
     inkscape:pageopacity="0"
     inkscape:pageshadow="2"
     inkscape:window-width="1311"
     inkscape:window-height="744"
     id="namedview3155"
     showgrid="false"
     inkscape:zoom="64"
     inkscape:cx="18.664813"
     inkscape:cy="18.732284"
     inkscape:window-x="55"
     inkscape:window-y="24"
     inkscape:window-maximized="1"
     inkscape:current-layer="svg3229"
     showguides="true"
     inkscape:guide-bbox="true" />
  <metadata
     id="metadata9">
    <rdf:RDF>
      <cc:Work
         rdf:about="">
        <dc:format>image/svg+xml</dc:format>
        <dc:type
           rdf:resource="http://purl.org/dc/dcmitype/StillImage" />
        <dc:title />
      </cc:Work>
    </rdf:RDF>
  </metadata>
  <path
     sodipodi:nodetypes="cscccccscccccsc"
     inkscape:connector-curvature="0"
     id="rect3170-29"
     d="M 18.47834,5.058511 C 18.451162,2.5728401 17.698881,1.1532848 15.14137,1.1433933 8.9740072,1.1195403 6.5757432,1.1281589 3.9078122,1.1228539 c 0.0067,6.6537609 -0.01188,19.0803971 0.01428,20.0061311 0.982913,0.0046 3.887514,-0.02567 4.770333,-0.01152 0.0063,-2.236307 0,-13.8221293 0,-16.065908 1.6518868,0.015269 2.9402188,0.00696 5.3820518,0.00696 0.592418,0.3879406 1.052959,3.489716 0.29128,5.175584 -0.768356,1.700648 -2.761777,1.983802 -2.800609,1.983802 l 0,-2.193054 -2.8727228,3.35239 2.8727228,3.677384 0.176777,-2.040913 c -5.04e-4,-0.702156 3.604764,-0.03492 5.252563,-2.009354 1.932474,-2.315543 1.47778,-7.1825569 1.483852,-7.945845 z"
     style="fill:#ff5b5b;fill-opacity:1" />
</svg>
